<svg width="2500" height="2500" viewBox="0 0 2500 2500" fill="none" xmlns="http://www.w3.org/2000/svg">
<path fill-rule="evenodd" clip-rule="evenodd" d="M365.54 110.295H2134.47C2171.39 110.295 2201.35 139.503 2201.35 175.533V2324.47C2201.35 2360.48 2171.37 2389.71 2134.47 2389.71H365.54C328.615 2389.71 298.668 2360.48 298.668 2324.47V175.533C298.655 139.503 328.602 110.295 365.54 110.295Z" fill="#F2D26D"/>
<path d="M365.54 110.295H2134.47C2171.39 110.295 2201.35 139.503 2201.35 175.533V2324.47C2201.35 2360.48 2171.37 2389.71 2134.47 2389.71H365.54C328.615 2389.71 298.668 2360.48 298.668 2324.47V175.533C298.655 139.503 328.602 110.295 365.54 110.295Z" stroke="white" stroke-width="109.62" stroke-miterlimit="2.613"/>
<path fill-rule="evenodd" clip-rule="evenodd" d="M365.54 110.295H2134.47C2171.39 110.295 2201.35 139.503 2201.35 175.533V2324.47C2201.35 2360.48 2171.37 2389.71 2134.47 2389.71H365.54C328.615 2389.71 298.668 2360.48 298.668 2324.47V175.533C298.655 139.503 328.602 110.295 365.54 110.295Z" fill="#F2D26D"/>
<path fill-rule="evenodd" clip-rule="evenodd" d="M469.648 277.32H2032.56V2221.58H469.648V277.32Z" fill="#DF9858"/>
<path fill-rule="evenodd" clip-rule="evenodd" d="M538.4 343.789H1963.83V2155.07H538.4V343.789Z" fill="#D7724E"/>
<path fill-rule="evenodd" clip-rule="evenodd" d="M572.135 376.279H1929.99V2119.83H572.135V376.279Z" fill="#5B72A4"/>
<path fill-rule="evenodd" clip-rule="evenodd" d="M785.047 1861.59H877.326L888.48 1901.24H1017.79L897.832 1583.21H762.739L645.92 1901.24H775.216L785.047 1861.59ZM806.888 1786.09L829.183 1689.09H833.631C835.862 1702.58 838.093 1716.5 841.66 1729.99L855.939 1786.09H806.888ZM1043.14 1901.24H1267.87V1799.17H1165.31V1583.21H1043.14V1901.24ZM1302.1 1901.24H1456.85C1555.37 1901.24 1625.81 1841.34 1625.81 1746.89C1625.81 1630.04 1539.33 1583.22 1426.51 1583.22H1302.1V1901.24ZM1424.26 1682.74H1431.86C1476.43 1682.74 1503.65 1701.74 1503.65 1746.43C1503.65 1788.19 1472.44 1805.92 1431.86 1805.92H1424.26V1682.74ZM1670.76 1583.21H1792.91V1901.26H1670.76V1583.21Z" fill="white"/>
<path fill-rule="evenodd" clip-rule="evenodd" d="M1722.32 1457.19H768.783L768.796 514.875H1722.32V1457.19ZM1787.44 1521.6L703.648 1521.56L703.661 450.428L1787.44 450.441V1521.6Z" fill="#9ACFDD"/>
<path fill-rule="evenodd" clip-rule="evenodd" d="M1722.32 1259.83H1210.97L1259.18 1196.91H1722.32V1259.83ZM1722.32 1181.23H1268.14L1312.53 1118.34H1722.32V1181.23ZM868.209 1427.75H793.205L1422.64 539.477H1497.68L868.209 1427.75ZM968.206 1427.75H893.176L1522.62 539.477H1597.62L968.206 1427.75ZM1068.16 1427.75H993.134L1622.58 539.477H1697.6L1068.16 1427.75ZM1722.32 1103.26H1324.99L1368.1 1040.38H1722.32V1103.26Z" fill="#9ACFDD"/>
</svg>
