<svg width="2428" height="724" viewBox="0 0 2428 724" fill="none" xmlns="http://www.w3.org/2000/svg">
<path fill-rule="evenodd" clip-rule="evenodd" d="M2212.79 3.85334L1894.87 3.98307L1810.95 338.201C1810.79 328.123 1809.83 318.059 1807.3 303.208C1804.77 288.358 1800.63 268.696 1796.25 252.328C1792.35 237.356 1787.14 222.753 1780.7 208.685C1773.2 192.307 1764.24 176.645 1753.9 161.89C1741.28 143.972 1727.52 126.882 1712.71 110.724C1700.76 97.5279 1687.43 85.6453 1672.95 75.2779C1657.47 63.9683 1637.46 51.0115 1617.24 41.0507C1597.02 31.0769 1576.58 24.1121 1560.34 19.3133C1544.11 14.5145 1532.07 11.8687 1518.22 9.62489C1505.27 7.58549 1492.27 5.89881 1479.23 4.56669C1469.71 3.59395 1466.29 3.69769 1462.84 3.71066L1215.69 4.12576L1215.79 402.674C1210.87 390.927 1205.2 379.511 1198.81 368.498C1188.47 351.714 1176.01 336.335 1161.73 322.741C1147.83 309.59 1132.74 298.928 1111.5 288.462C1090.25 277.995 1062.88 267.749 1035.16 260.201C1007.43 252.639 979.312 248.372 951.077 245.623L908.782 241.524C901.489 241.331 894.324 239.556 887.784 236.323C881.027 233.016 874.646 228.088 870.612 223.535C866.578 218.983 864.892 214.768 863.92 210.436C861.676 200.864 863.531 190.359 869.341 182.719C872.529 178.616 876.558 175.242 881.156 172.823C885.644 170.359 890.43 168.699 901.195 167.208C911.96 165.729 928.691 164.419 945.759 164.899C962.827 165.392 980.22 167.674 999.609 171.708C1018.99 175.755 1040.37 181.565 1057.13 186.818C1073.89 192.071 1086.04 196.792 1097.8 202.33L1178.85 52.036C1169.2 46.1088 1159.01 41.1414 1141.02 34.1896C1123.03 27.2378 1097.25 18.2758 1068.53 11.7131C1038.05 4.80078 1006.95 0.95981 975.706 0.247751C943.295 -0.491525 910.157 2.23213 885.372 5.09845C860.573 7.9518 844.154 10.9349 821.794 18.5481C799.434 26.1484 771.147 38.3789 748.774 52.6197C726.401 66.8605 709.943 83.1115 699.489 94.3434C689.035 105.575 684.6 111.814 678.893 121.372C672.035 132.84 665.955 144.756 660.696 157.039C655.29 169.875 651.112 183.194 648.22 196.817C642.655 222.977 642.642 248.424 648.09 276.919C650.826 291.147 654.951 305.945 661.488 320.004C668.011 334.064 676.948 347.384 685.923 358.278C694.184 368.237 703.373 377.387 713.367 385.605C722.835 393.556 732.782 400.975 751.303 409.859C769.824 418.769 796.944 429.132 817.332 435.798C837.721 442.465 851.404 445.422 865.126 448.003C878.861 450.584 892.635 452.802 901.662 454.19C907.892 455.171 914.145 456.002 920.416 456.68C925.863 457.289 932.504 457.964 938.95 460.13C945.409 462.309 951.699 465.966 956.148 470.233C960.596 474.487 963.19 479.338 965.032 484.279C966.874 489.221 967.924 494.24 967.587 500.764C967.143 507.932 965.594 514.989 962.996 521.684C960.454 528.052 957.107 532.76 951.829 537.287C946.55 541.813 939.378 546.21 933.035 548.674C926.706 551.139 921.22 551.683 911.091 550.762C900.974 549.854 886.202 547.481 876.15 545.432C866.099 543.396 860.742 541.671 855.658 539.349C834.154 530.88 812.65 522.398 791.743 512.657C770.836 502.904 750.512 491.88 730.201 480.868L672.992 574.73L505.111 4.68345L189.609 4.50187L0.755859 722.249L220.347 721.872L256.675 575.82L461.325 575.781L502.154 722.21L714.21 721.613L699.502 671.628C704.884 674.753 710.474 677.503 723.509 683.223C742.821 691.816 762.677 699.129 782.949 705.116C808.876 712.664 840.237 719.11 868.874 721.976C897.498 724.843 923.386 724.129 944.968 722.106C963.818 720.361 982.5 717.13 1000.84 712.444C1034.32 703.832 1066.49 692.872 1100.16 674.507C1117.28 665.151 1133.5 654.245 1148.62 641.927C1161.81 630.917 1174.08 618.854 1185.32 605.858C1192.07 598.218 1198.2 590.056 1203.66 581.449C1208.24 574.289 1212.53 566.949 1216.44 559.413L1216.89 723.053C1308.25 722.56 1399.62 722.923 1490.99 722.858C1495.94 723.195 1500.9 722.975 1511.59 721.483C1527.38 719.263 1543 715.996 1558.35 711.704C1579.9 705.596 1600.98 697.893 1621.39 688.657C1640.52 679.947 1658.87 669.625 1676.24 657.802C1691.35 647.511 1705.59 635.985 1718.8 623.341C1732.61 610.181 1745.59 596.168 1757.65 581.384L1723.82 721.406L1932.69 721.639L1972.51 575.651L2171.66 575.924L2218.3 721.535L2427.23 721.665L2212.79 3.85334ZM295.753 421.674L349.578 196.74L414.932 422.024L295.753 421.674ZM1597.74 366.981C1597.44 385.087 1594.79 407.369 1588.57 427.809C1582.34 448.249 1572.48 466.861 1563.85 479.442C1555.21 492.022 1547.76 498.611 1537.83 504.733C1527.89 510.854 1515.51 516.561 1505.46 519.687C1495.4 522.826 1487.7 523.409 1478.83 523.643C1460.84 524.032 1439.65 523.565 1419.86 523.344L1419.8 197.22C1426.13 196.882 1432.5 196.779 1441.59 196.662C1450.71 196.558 1462.59 196.428 1477.21 199.308C1491.85 202.174 1509.28 208.023 1521.06 213.211C1532.84 218.399 1539.02 222.939 1548.17 234.067C1557.31 245.195 1569.45 262.937 1577.58 278.527C1585.74 294.117 1589.89 307.566 1592.99 321.249C1596.04 334.958 1598.03 348.888 1597.74 366.981ZM2006.41 422.206L2062.7 194.392L2123.98 422.206H2006.41Z" fill="#49A956"/>
</svg>
