<svg width="2280" height="656" viewBox="0 0 2280 656" fill="none" xmlns="http://www.w3.org/2000/svg">
<path fill-rule="evenodd" clip-rule="evenodd" d="M175.166 542.234H452.68C455.922 542.234 455.922 543.856 452.68 545.477C421.851 560.068 376.405 605.514 376.405 605.514C345.576 636.369 321.231 655.824 267.666 655.824H1.51377C-0.107454 655.824 -0.107454 652.581 1.51377 652.581C30.7217 636.369 74.5465 590.923 74.5465 590.923C92.3929 569.821 129.72 542.234 175.166 542.234ZM1999.34 542.234H2278.49C2280.11 542.234 2280.11 543.856 2278.49 545.477C2246.04 560.068 2202.21 605.514 2202.21 605.514C2169.73 636.369 2145.39 655.824 2093.46 655.824H1827.31C1825.69 655.824 1825.69 652.581 1827.31 652.581C1856.51 636.369 1900.34 590.923 1900.34 590.923C1918.2 569.821 1953.89 542.234 1999.34 542.234ZM631.209 542.234H908.723C911.965 542.234 911.965 543.856 908.723 545.477C877.894 560.068 832.448 605.514 832.448 605.514C801.619 636.369 777.274 655.824 723.709 655.824H459.178C455.935 655.824 455.935 652.581 457.557 652.581C486.765 636.369 530.589 590.923 530.589 590.923C548.449 569.821 585.776 542.234 631.209 542.234ZM1087.25 542.234H1364.78C1368.02 542.234 1368.02 543.856 1364.78 545.477C1333.95 560.068 1288.5 605.514 1288.5 605.514C1257.65 636.369 1233.33 655.824 1181.37 655.824H915.221C913.6 655.824 913.6 652.581 913.6 652.581C944.429 636.369 986.632 590.923 986.632 590.923C1004.49 569.821 1041.82 542.234 1087.25 542.234ZM1543.29 542.234H1822.44C1824.06 542.234 1824.06 543.856 1820.82 545.477C1789.99 560.068 1744.55 605.514 1744.55 605.514C1713.69 636.369 1689.35 655.824 1637.42 655.824H1371.26C1369.64 655.824 1369.64 652.581 1371.26 652.581C1400.47 636.369 1444.3 590.923 1444.3 590.923C1460.53 569.821 1497.85 542.234 1543.29 542.234Z" fill="#28539C"/>
<path fill-rule="evenodd" clip-rule="evenodd" d="M1619.58 0.175781C1444.28 0.175781 1327.44 91.055 1327.44 229.014C1327.44 355.612 1434.57 439.994 1593.59 439.994C1645.55 439.994 1690.99 433.509 1744.55 418.892V313.422C1707.21 355.612 1661.76 371.824 1613.07 371.824C1518.94 371.824 1454.04 310.166 1454.04 219.287C1454.04 130.016 1520.56 65.1025 1614.69 65.1025C1665 65.1025 1705.59 84.5701 1738.06 118.655V11.5373C1703.96 5.03944 1661.76 0.175781 1619.58 0.175781ZM311.492 74.8168C376.405 74.8168 454.315 87.7996 486.778 115.386V14.7668H25.8584V115.386C58.3088 87.7996 128.099 76.4381 202.753 76.4381V352.344C202.753 392.9 199.511 404.275 183.285 425.377H330.972C314.747 404.275 311.492 392.9 311.492 352.344V74.8168ZM782.151 173.828C756.186 183.568 707.497 185.189 683.153 185.189H644.192V76.451H696.123C743.19 76.451 822.708 86.1783 853.55 113.778V14.7797H517.607C533.832 34.2473 537.075 47.2301 537.075 86.1783V352.344C537.075 392.9 533.832 404.275 519.228 425.377H876.273V324.744C827.584 362.071 733.463 362.071 696.136 362.071H644.192V246.848H681.519C707.484 246.848 754.552 250.09 782.138 259.831L782.151 173.828ZM1280.37 27.7625C1226.82 9.91606 1157.03 0.175781 1103.48 0.175781C1006.1 0.175781 911.966 31.0049 911.966 134.88C911.966 313.409 1204.08 219.274 1204.08 329.647C1204.08 365.34 1152.15 379.957 1109.96 379.957C1035.31 379.957 983.377 366.961 918.451 324.77V415.649C967.139 431.887 1033.69 441.615 1105.09 441.615C1205.7 441.615 1299.84 412.407 1299.84 306.924C1299.84 118.668 1009.34 203.062 1009.34 112.17C1009.34 74.8427 1056.41 61.86 1096.98 61.86C1165.15 61.86 1239.8 82.9488 1280.36 123.531L1280.37 27.7625ZM2030.19 6.66066C1872.75 6.66066 1760.77 97.5399 1760.77 225.759C1760.77 352.357 1861.42 435.117 2009.09 435.117C2168.13 435.117 2278.49 347.493 2278.49 217.653C2278.49 91.055 2177.87 6.66066 2030.19 6.66066ZM2018.82 373.459C1934.44 373.459 1880.86 305.29 1880.86 220.895C1880.86 136.501 1934.44 68.332 2018.82 68.332C2101.58 68.332 2156.78 136.501 2156.78 220.895C2156.78 305.29 2101.58 373.459 2018.82 373.459Z" fill="#CC2131"/>
</svg>
